<svg width="836" height="237" xmlns="http://www.w3.org/2000/svg"><path d="M673.294 177.59c-12.771 5.203-22.849 23.18-38.176 33.399-.95.633-1.9.95-2.534.95-1.267 0-2.851-1.267-2.851-6.97 0-19.641 6.336-29.145 11.721-43.084 18.692-48.47 50.688-89.971 79.2-135.274 2.218-3.485 3.485-7.286 3.485-11.405 0-3.484-1.267-6.336-2.851-9.82C720.021 2.534 714.318 0 707.982 0c-3.484 0-6.652.317-10.77.317-14.89 0-18.058 21.859-21.543 27.561-23.76 40.234-51.005 89.972-64.944 125.136-3.057 7.883-6.359 15.767-8.868 23.857-13.775 3.989-24.095 23.357-40.236 34.118-.95.633-1.901.95-2.535.95-1.267 0-2.85-1.267-2.85-6.97 0-19.641 6.335-29.145 11.72-43.084 18.692-48.47 50.689-89.971 79.2-135.274 2.218-3.485 3.486-7.286 3.486-11.405 0-3.484-1.268-6.336-2.852-9.82C646.523 2.534 640.82 0 634.485 0c-3.485 0-6.653.317-10.771.317-14.89 0-18.058 21.859-21.543 27.561-23.76 40.234-51.005 89.972-64.944 125.136-1.108 2.858-2.248 5.716-3.372 8.584a24.54 24.54 0 0 0-1.063.604c-16.157 9.504-29.78 26.294-49.42 37.699-3.802 2.217-15.524 10.454-25.028 10.454-2.218 0-4.118-.633-6.02-1.584-2.85-1.267-5.702-7.286-5.702-9.187 0-1.584.317-1.9 3.485-3.802 27.879-16.79 50.688-40.867 70.33-64.944 7.286-8.87 16.79-26.294 16.79-38.966 0-8.237-2.851-17.74-12.672-21.226-6.97-2.534-14.89-3.801-21.225-3.801-16.79 0-29.146 7.603-36.116 14.89-7.095 7.574-13.958 15.352-20.335 23.404-6.662-5.752-16.06-8.198-24.967-8.198-10.454 0-30.096 12.989-40.234 20.592-1.584 1.267-2.534 1.9-3.168 1.9-.316 0-.633-.316-.633-.95 0-.317.633-3.168.633-8.237 0-4.435-.95-10.137-5.068-17.107-.95-1.584-6.653-5.069-13.623-5.069-8.553 0-16.473 4.119-16.473 8.554 0 3.168 2.85 4.435 2.85 7.286 0 1.584-1.266 8.87-3.167 15.84-5.386 20.276-12.039 40.234-19.008 60.192-3.802 11.088-16.474 20.91-16.474 32.948 0 3.801 2.535 8.87 6.02 12.672 5.702 6.336 9.187 8.553 14.255 8.553 2.218 0 4.752-.633 6.97-2.534 4.752-4.119 7.286-8.237 8.554-13.94 8.236-37.382 31.996-62.726 58.29-79.516 8.871-5.703 20.91-11.722 22.494-11.722 1.624 0 4.164.75 6.724 1.48-7.35 11.989-13.306 24.632-17.179 38.12-1.267 4.435-1.9 8.554-1.9 12.989 0 7.286 1.583 14.89 4.118 22.176 3.485 10.138 9.187 19.008 17.107 23.126 14.573 7.604 25.027 11.722 34.531 11.722 5.386 0 9.504-.95 13.94-3.485 20.822-11.78 33.588-20.719 42.806-28.657.253 8.049 1.84 12.508 7.565 18.52 5.702 6.019 14.572 11.404 26.294 13.939 1.9.317 3.802.633 5.702.633 13.411 0 26.318-10.9 36.27-21.706 1.152 2.358 2.827 4.609 5.231 7.134 5.703 6.019 14.573 11.404 26.295 13.939 1.9.317 3.801.633 5.702.633 15.71 0 30.727-14.957 41.114-27.199 3.462 7.16 13.137 14.24 24.78 19.913 3.168 1.584 6.97 2.534 10.455 2.534 13.622 0 23.443-11.088 31.046-19.324 19.642-21.543 30.413-48.154 38.65-81.735.633-2.534 1.584-3.485 2.851-3.485 3.168 0 7.286 0 11.722-.633 8.553-1.267 15.206-4.119 23.126-5.386 4.752-.95 4.118-2.534 8.554-4.118 3.168-1.267 5.702-2.535 5.702-5.703 0-5.385-9.82-11.088-24.71-11.088-11.722 0-18.692.95-23.444.95-7.286 0-9.187-2.217-13.939-14.572 0 0 4.752 12.355 0 0-.95-2.534-1.9-3.802-4.752-6.336-6.653-5.702-14.89-7.603-21.542-7.603-15.84 0-29.463 16.157-38.967 29.779-2.217 3.168-5.385 5.702-7.603 9.187-13.05 19.575-25.544 41.65-27.085 65.443zM268.264 69.696c7.92 0 12.355-.634 13.306-.634.95 0 1.584.317 1.584 1.268 0 .633-.317 1.584-2.535 6.336-19.325 41.5-32.63 83.635-44.352 130.204-.317 1.268-1.267 6.02-1.267 10.772 0 4.435 1.267 9.187 5.702 11.721 8.554 5.069 15.524 7.287 20.276 7.287 6.97 0 10.454-4.436 10.454-11.722 0-6.336.317-12.989 1.267-18.058 8.87-46.57 22.176-83.001 42.768-121.017 9.821-18.058 11.088-19.008 11.088-20.592 0-.634-.317-1.584-.95-2.535 12.672-2.85 27.878-4.752 41.817-4.752 1.584 0 7.92 2.218 8.87 3.168 2.218 2.218 4.436 4.436 8.238 4.436 3.168 0 8.553-2.218 10.454-3.485 4.435-3.168 6.653-6.653 6.653-12.355 0-5.386-19.959-18.692-33.898-18.692-17.107 0-32.63 2.218-47.203 5.07-6.336 1.266-29.146 4.751-45.62 4.751-15.84 0-14.889-2.217-21.542-2.217-3.801 0-5.702 1.9-7.286 3.484-1.584 1.584-2.534 7.92-2.534 13.623 0 2.851 0 5.069 1.584 6.97 4.752 5.702 13.939 6.969 23.126 6.969 0 0-9.187 0 0 0zm234.749 25.66c0 2.852-.95 4.753-4.752 10.772-3.802 6.02-2.218 6.02-6.97 12.355-9.187 12.355-20.592 24.71-35.481 38.333-4.119 3.802-4.752 3.802-5.386 3.802-.317 0-.95-.317-.95-.95 0-.951.316-2.218 3.484-8.871 9.821-20.592 21.86-34.215 35.165-47.52 7.287-7.287 11.722-9.821 13.306-9.821.95 0 1.584.317 1.584 1.9 0 0 0-1.583 0 0zm243.619 8.238c.317 0 .634.316.95.95.317.95.95 1.9 2.535 3.168 1.267.95 1.267 5.386 1.267 8.87 0 30.73-17.424 56.074-34.531 81.735-3.802 5.702-6.02 6.653-7.92 6.653-1.584 0-4.119-4.119-5.069-6.653-1.267-3.485-1.584-7.603-1.584-9.187 0-24.71 23.443-61.46 38.966-81.735 2.535-3.485 4.436-3.801 5.386-3.801 0 0-.95 0 0 0zM25.001 35H175c13.8 0 25 11.193 25 25.001V210c0 13.8-11.194 25-25.001 25H25c-13.8 0-25-11.194-25-25.001V60c0-13.8 11.193-25 25.001-25zm12.996 26C31.371 61 26 66.367 26 73.005v113.99C26 193.625 31.373 199 37.997 199h37.006C81.629 199 87 193.633 87 186.995V73.005C87 66.375 81.627 61 75.003 61H37.997zm87 0C118.371 61 113 66.372 113 73.006v63.988c0 6.63 5.373 12.006 11.997 12.006h37.006c6.626 0 11.997-5.372 11.997-12.006V73.006C174 66.376 168.627 61 162.003 61h-37.006z" fill="#FFF"/></svg>